<svg xmlns="http://www.w3.org/2000/svg" viewBox="8 -2 114 114" role="img" aria-label="Scheffler Immobilien"><title>Scheffler Immobilien</title><rect x="45" y="33" width="8" height="74" fill="#FED18C"/><rect x="57.5" y="16.5" width="8" height="90.5" fill="#FED18C"/><rect x="70" y="0" width="8" height="107" fill="#9EA500"/><rect x="82.5" y="16.5" width="8" height="90.5" fill="#FED18C"/><rect x="95" y="33" width="8" height="74" fill="#FED18C"/><path d="M10 80.6C24 90.9 37.5 93.9 60.1 94.2C95.8 95.1 126 83 118.8 62C114.3 77.4 106.3 82.4 76.8 87.2C52.4 90.7 26 86.8 10 80.6Z" fill="none" stroke="#fff" stroke-width="3" stroke-linejoin="round"/><path d="M10 80.6C24 90.9 37.5 93.9 60.1 94.2C95.8 95.1 126 83 118.8 62C114.3 77.4 106.3 82.4 76.8 87.2C52.4 90.7 26 86.8 10 80.6Z" fill="#0051FF"/></svg>
